<mxfile host="app.diagrams.net" modified="2023-09-20T10:11:07.494Z" agent="Mozilla/5.0 (Windows NT 10.0; Win64; x64) AppleWebKit/537.36 (KHTML, like Gecko) Chrome/116.0.0.0 Safari/537.36" version="21.7.5" etag="0JOWw47-4WKZT8TedLHI" type="github">
  <diagram name="Page-1" id="nadUw6_gtDwK5TJZHjRB">
    <mxGraphModel>
      <root>
        <mxCell id="0" />
        <mxCell id="1" parent="0" />
      </root>
    </mxGraphModel>
  </diagram>
</mxfile>
